<svg viewBox="0 0 1024 1024" xmlns="http://www.w3.org/2000/svg"><path d="M1024 0c0 1024 0 1024-1024 1024C0 0 0 0 1024 0" fill="#1B1B1B"/><path d="M250.87 466.03c63.418-566.518 780.223-85.847 281.559 254.703-2.356 1.61 83.073 82.015 88.357 86.74 50.218 44.907-11.514 121.865-75.374 88.071-15.965-8.449-185.547-172.314-187.886-170.256-2.629 2.314-7.649 90.073-7.896 93.531-4.94 68.878-114.892 62.206-111.973 1.16.259-5.415 12.187-344.789 13.212-353.95" fill="#2DCB70"/><path d="M630.169 429.55c17.511 237.384-308.458 209.064-305.201 2.636 2.068-131.051 291.116-193.577 305.201-2.636" fill="#1B1B1B"/></svg>